<mxfile host="app.diagrams.net" modified="2021-02-02T15:18:19.762Z" agent="5.0 (Macintosh; Intel Mac OS X 10_15_7) AppleWebKit/537.36 (KHTML, like Gecko) Chrome/88.0.4324.96 Safari/537.36" etag="dakrzs7WmPWpmNI-G4Mw" version="13.8.1" type="github">
  <diagram id="ocjEKwFpsV1IeR2hr5S3" name="Page-1">
    <mxGraphModel dx="4475" dy="4055" grid="1" gridSize="10" guides="1" tooltips="1" connect="1" arrows="1" fold="1" page="1" pageScale="1" pageWidth="850" pageHeight="1100" math="0" shadow="0">
      <root>
        <mxCell id="0" />
        <mxCell id="1" parent="0" />
        <mxCell id="9TntlFMedyVJn60BAklY-58" value="" style="rounded=1;whiteSpace=wrap;html=1;strokeColor=#9673a6;fontSize=14;fillColor=#e1d5e7;" vertex="1" parent="1">
          <mxGeometry x="85" y="720" width="710" height="320" as="geometry" />
        </mxCell>
        <mxCell id="9TntlFMedyVJn60BAklY-1" value="" style="rounded=1;whiteSpace=wrap;html=1;strokeColor=#82b366;fontSize=14;fillColor=#d5e8d4;" vertex="1" parent="1">
          <mxGeometry x="85" y="-560" width="710" height="720" as="geometry" />
        </mxCell>
        <mxCell id="fXf3r-uobzJEQX9jouKG-5" value="P0" style="ellipse;whiteSpace=wrap;html=1;fontSize=24;" parent="1" vertex="1">
          <mxGeometry x="160" y="-800" width="80" height="80" as="geometry" />
        </mxCell>
        <mxCell id="fXf3r-uobzJEQX9jouKG-6" value="P1" style="ellipse;whiteSpace=wrap;html=1;fontSize=24;" parent="1" vertex="1">
          <mxGeometry x="320" y="-800" width="80" height="80" as="geometry" />
        </mxCell>
        <mxCell id="fXf3r-uobzJEQX9jouKG-7" value="P2" style="ellipse;whiteSpace=wrap;html=1;fontSize=24;" parent="1" vertex="1">
          <mxGeometry x="480" y="-800" width="80" height="80" as="geometry" />
        </mxCell>
        <mxCell id="fXf3r-uobzJEQX9jouKG-8" value="P3" style="ellipse;whiteSpace=wrap;html=1;fontSize=24;" parent="1" vertex="1">
          <mxGeometry x="640" y="-800" width="80" height="80" as="geometry" />
        </mxCell>
        <mxCell id="fXf3r-uobzJEQX9jouKG-9" value="P0" style="ellipse;whiteSpace=wrap;html=1;fontSize=24;" parent="1" vertex="1">
          <mxGeometry x="160" y="-680" width="80" height="80" as="geometry" />
        </mxCell>
        <mxCell id="fXf3r-uobzJEQX9jouKG-10" value="P1" style="ellipse;whiteSpace=wrap;html=1;fontSize=24;" parent="1" vertex="1">
          <mxGeometry x="320" y="-680" width="80" height="80" as="geometry" />
        </mxCell>
        <mxCell id="fXf3r-uobzJEQX9jouKG-11" value="P2" style="ellipse;whiteSpace=wrap;html=1;fontSize=24;" parent="1" vertex="1">
          <mxGeometry x="480" y="-680" width="80" height="80" as="geometry" />
        </mxCell>
        <mxCell id="fXf3r-uobzJEQX9jouKG-12" value="P3" style="ellipse;whiteSpace=wrap;html=1;fontSize=24;" parent="1" vertex="1">
          <mxGeometry x="640" y="-680" width="80" height="80" as="geometry" />
        </mxCell>
        <mxCell id="fXf3r-uobzJEQX9jouKG-16" value="" style="endArrow=classic;html=1;fontSize=24;" parent="1" source="fXf3r-uobzJEQX9jouKG-5" target="fXf3r-uobzJEQX9jouKG-10" edge="1">
          <mxGeometry width="50" height="50" relative="1" as="geometry">
            <mxPoint x="160" y="-720" as="sourcePoint" />
            <mxPoint x="170" y="-510" as="targetPoint" />
          </mxGeometry>
        </mxCell>
        <mxCell id="fXf3r-uobzJEQX9jouKG-17" value="" style="endArrow=classic;html=1;fontSize=24;" parent="1" source="fXf3r-uobzJEQX9jouKG-5" target="fXf3r-uobzJEQX9jouKG-11" edge="1">
          <mxGeometry width="50" height="50" relative="1" as="geometry">
            <mxPoint x="160" y="-720" as="sourcePoint" />
            <mxPoint x="270" y="-520" as="targetPoint" />
          </mxGeometry>
        </mxCell>
        <mxCell id="fXf3r-uobzJEQX9jouKG-19" value="" style="endArrow=classic;html=1;fontSize=24;" parent="1" source="fXf3r-uobzJEQX9jouKG-5" target="fXf3r-uobzJEQX9jouKG-12" edge="1">
          <mxGeometry width="50" height="50" relative="1" as="geometry">
            <mxPoint x="188.2842712474619" y="-721.715728752538" as="sourcePoint" />
            <mxPoint x="530" y="-580" as="targetPoint" />
          </mxGeometry>
        </mxCell>
        <mxCell id="fXf3r-uobzJEQX9jouKG-21" value="" style="endArrow=classic;html=1;fontSize=24;" parent="1" source="fXf3r-uobzJEQX9jouKG-5" target="fXf3r-uobzJEQX9jouKG-9" edge="1">
          <mxGeometry width="50" height="50" relative="1" as="geometry">
            <mxPoint x="280" y="-720" as="sourcePoint" />
            <mxPoint x="200" y="-640" as="targetPoint" />
          </mxGeometry>
        </mxCell>
        <mxCell id="fXf3r-uobzJEQX9jouKG-22" value="GBMCMC Step" style="rounded=0;whiteSpace=wrap;html=1;fontSize=14;fillColor=#fff2cc;" parent="1" vertex="1">
          <mxGeometry x="160" y="-520" width="80" height="80" as="geometry" />
        </mxCell>
        <mxCell id="fXf3r-uobzJEQX9jouKG-23" value="GBMCMC Step" style="rounded=0;whiteSpace=wrap;html=1;fontSize=14;fillColor=#fff2cc;" parent="1" vertex="1">
          <mxGeometry x="320" y="-520" width="80" height="80" as="geometry" />
        </mxCell>
        <mxCell id="fXf3r-uobzJEQX9jouKG-24" value="GBMCMC Step" style="rounded=0;whiteSpace=wrap;html=1;fontSize=14;fillColor=#fff2cc;" parent="1" vertex="1">
          <mxGeometry x="480" y="-520" width="80" height="80" as="geometry" />
        </mxCell>
        <mxCell id="fXf3r-uobzJEQX9jouKG-25" value="GBMCMC Step" style="rounded=0;whiteSpace=wrap;html=1;fontSize=14;fillColor=#fff2cc;" parent="1" vertex="1">
          <mxGeometry x="640" y="-520" width="80" height="80" as="geometry" />
        </mxCell>
        <mxCell id="fXf3r-uobzJEQX9jouKG-26" value="P4" style="ellipse;whiteSpace=wrap;html=1;fontSize=24;" parent="1" vertex="1">
          <mxGeometry x="640" y="-1040" width="80" height="80" as="geometry" />
        </mxCell>
        <mxCell id="fXf3r-uobzJEQX9jouKG-27" value="P3" style="ellipse;whiteSpace=wrap;html=1;fontSize=24;" parent="1" vertex="1">
          <mxGeometry x="480" y="-1040" width="80" height="80" as="geometry" />
        </mxCell>
        <mxCell id="fXf3r-uobzJEQX9jouKG-28" value="&lt;font style=&quot;font-size: 24px&quot;&gt;P1&lt;/font&gt;" style="ellipse;whiteSpace=wrap;html=1;fontSize=24;" parent="1" vertex="1">
          <mxGeometry x="320" y="-1040" width="80" height="80" as="geometry" />
        </mxCell>
        <mxCell id="fXf3r-uobzJEQX9jouKG-29" value="&lt;font style=&quot;font-size: 24px&quot;&gt;P0&lt;/font&gt;" style="ellipse;whiteSpace=wrap;html=1;fontSize=24;" parent="1" vertex="1">
          <mxGeometry x="160" y="-1040" width="80" height="80" as="geometry" />
        </mxCell>
        <mxCell id="fXf3r-uobzJEQX9jouKG-30" value="Read Data" style="rounded=0;whiteSpace=wrap;html=1;fontSize=24;fillColor=#fff2cc;" parent="1" vertex="1">
          <mxGeometry x="160" y="-920" width="80" height="80" as="geometry" />
        </mxCell>
        <mxCell id="fXf3r-uobzJEQX9jouKG-31" value="" style="endArrow=classic;html=1;entryX=0.5;entryY=0;entryDx=0;entryDy=0;fontSize=24;" parent="1" source="fXf3r-uobzJEQX9jouKG-29" target="fXf3r-uobzJEQX9jouKG-30" edge="1">
          <mxGeometry width="50" height="50" relative="1" as="geometry">
            <mxPoint x="460" y="-570" as="sourcePoint" />
            <mxPoint x="510" y="-620" as="targetPoint" />
          </mxGeometry>
        </mxCell>
        <mxCell id="fXf3r-uobzJEQX9jouKG-32" value="" style="endArrow=classic;html=1;exitX=0.5;exitY=1;exitDx=0;exitDy=0;fontSize=24;" parent="1" source="fXf3r-uobzJEQX9jouKG-30" target="fXf3r-uobzJEQX9jouKG-5" edge="1">
          <mxGeometry width="50" height="50" relative="1" as="geometry">
            <mxPoint x="460" y="-570" as="sourcePoint" />
            <mxPoint x="510" y="-620" as="targetPoint" />
          </mxGeometry>
        </mxCell>
        <mxCell id="fXf3r-uobzJEQX9jouKG-33" value="P3" style="ellipse;whiteSpace=wrap;html=1;fontSize=24;" parent="1" vertex="1">
          <mxGeometry x="640" y="-400" width="80" height="80" as="geometry" />
        </mxCell>
        <mxCell id="fXf3r-uobzJEQX9jouKG-34" value="P2" style="ellipse;whiteSpace=wrap;html=1;fontSize=24;" parent="1" vertex="1">
          <mxGeometry x="480" y="-400" width="80" height="80" as="geometry" />
        </mxCell>
        <mxCell id="fXf3r-uobzJEQX9jouKG-35" value="P1" style="ellipse;whiteSpace=wrap;html=1;fontSize=24;" parent="1" vertex="1">
          <mxGeometry x="320" y="-400" width="80" height="80" as="geometry" />
        </mxCell>
        <mxCell id="fXf3r-uobzJEQX9jouKG-36" value="P0" style="ellipse;whiteSpace=wrap;html=1;fontSize=24;" parent="1" vertex="1">
          <mxGeometry x="160" y="-400" width="80" height="80" as="geometry" />
        </mxCell>
        <mxCell id="fXf3r-uobzJEQX9jouKG-42" value="" style="endArrow=classic;html=1;exitX=0.5;exitY=1;exitDx=0;exitDy=0;fontSize=24;" parent="1" source="fXf3r-uobzJEQX9jouKG-22" target="fXf3r-uobzJEQX9jouKG-36" edge="1">
          <mxGeometry width="50" height="50" relative="1" as="geometry">
            <mxPoint x="420" y="-480" as="sourcePoint" />
            <mxPoint x="470" y="-530" as="targetPoint" />
          </mxGeometry>
        </mxCell>
        <mxCell id="fXf3r-uobzJEQX9jouKG-43" value="" style="endArrow=classic;html=1;exitX=0.5;exitY=1;exitDx=0;exitDy=0;fontSize=24;" parent="1" source="fXf3r-uobzJEQX9jouKG-23" target="fXf3r-uobzJEQX9jouKG-35" edge="1">
          <mxGeometry width="50" height="50" relative="1" as="geometry">
            <mxPoint x="420" y="-480" as="sourcePoint" />
            <mxPoint x="470" y="-530" as="targetPoint" />
          </mxGeometry>
        </mxCell>
        <mxCell id="fXf3r-uobzJEQX9jouKG-47" value="" style="endArrow=classic;html=1;exitX=0.5;exitY=1;exitDx=0;exitDy=0;entryX=0.5;entryY=0;entryDx=0;entryDy=0;fontSize=24;" parent="1" source="fXf3r-uobzJEQX9jouKG-24" target="fXf3r-uobzJEQX9jouKG-34" edge="1">
          <mxGeometry width="50" height="50" relative="1" as="geometry">
            <mxPoint x="420" y="-480" as="sourcePoint" />
            <mxPoint x="470" y="-530" as="targetPoint" />
          </mxGeometry>
        </mxCell>
        <mxCell id="fXf3r-uobzJEQX9jouKG-48" value="" style="endArrow=classic;html=1;exitX=0.5;exitY=1;exitDx=0;exitDy=0;fontSize=24;" parent="1" source="fXf3r-uobzJEQX9jouKG-25" target="fXf3r-uobzJEQX9jouKG-33" edge="1">
          <mxGeometry width="50" height="50" relative="1" as="geometry">
            <mxPoint x="420" y="-480" as="sourcePoint" />
            <mxPoint x="470" y="-530" as="targetPoint" />
          </mxGeometry>
        </mxCell>
        <mxCell id="fXf3r-uobzJEQX9jouKG-49" value="P3" style="ellipse;whiteSpace=wrap;html=1;fontSize=24;" parent="1" vertex="1">
          <mxGeometry x="640" y="-280" width="80" height="80" as="geometry" />
        </mxCell>
        <mxCell id="fXf3r-uobzJEQX9jouKG-50" value="P2" style="ellipse;whiteSpace=wrap;html=1;fontSize=24;" parent="1" vertex="1">
          <mxGeometry x="480" y="-280" width="80" height="80" as="geometry" />
        </mxCell>
        <mxCell id="fXf3r-uobzJEQX9jouKG-51" value="P1" style="ellipse;whiteSpace=wrap;html=1;fontSize=24;" parent="1" vertex="1">
          <mxGeometry x="320" y="-280" width="80" height="80" as="geometry" />
        </mxCell>
        <mxCell id="fXf3r-uobzJEQX9jouKG-52" value="P0" style="ellipse;whiteSpace=wrap;html=1;fontSize=24;" parent="1" vertex="1">
          <mxGeometry x="160" y="-280" width="80" height="80" as="geometry" />
        </mxCell>
        <mxCell id="fXf3r-uobzJEQX9jouKG-56" value="" style="endArrow=classic;html=1;fontSize=24;" parent="1" source="fXf3r-uobzJEQX9jouKG-36" target="fXf3r-uobzJEQX9jouKG-51" edge="1">
          <mxGeometry width="50" height="50" relative="1" as="geometry">
            <mxPoint x="410" y="-280" as="sourcePoint" />
            <mxPoint x="253.33333333333326" y="-280" as="targetPoint" />
          </mxGeometry>
        </mxCell>
        <mxCell id="fXf3r-uobzJEQX9jouKG-58" value="" style="endArrow=classic;html=1;fontSize=24;" parent="1" source="fXf3r-uobzJEQX9jouKG-35" target="fXf3r-uobzJEQX9jouKG-52" edge="1">
          <mxGeometry width="50" height="50" relative="1" as="geometry">
            <mxPoint x="410" y="-280" as="sourcePoint" />
            <mxPoint x="306.66666666666674" y="-280" as="targetPoint" />
          </mxGeometry>
        </mxCell>
        <mxCell id="fXf3r-uobzJEQX9jouKG-63" value="" style="endArrow=classic;html=1;entryX=0.5;entryY=0;entryDx=0;entryDy=0;fontSize=24;" parent="1" source="fXf3r-uobzJEQX9jouKG-9" target="fXf3r-uobzJEQX9jouKG-22" edge="1">
          <mxGeometry relative="1" as="geometry">
            <mxPoint x="360" y="-380" as="sourcePoint" />
            <mxPoint x="460" y="-380" as="targetPoint" />
          </mxGeometry>
        </mxCell>
        <mxCell id="fXf3r-uobzJEQX9jouKG-75" value="" style="endArrow=classic;html=1;fontSize=24;" parent="1" source="fXf3r-uobzJEQX9jouKG-10" target="fXf3r-uobzJEQX9jouKG-23" edge="1">
          <mxGeometry relative="1" as="geometry">
            <mxPoint x="359.83" y="-610" as="sourcePoint" />
            <mxPoint x="359.83" y="-450" as="targetPoint" />
          </mxGeometry>
        </mxCell>
        <mxCell id="fXf3r-uobzJEQX9jouKG-77" value="" style="endArrow=classic;html=1;entryX=0.5;entryY=0;entryDx=0;entryDy=0;fontSize=24;" parent="1" source="fXf3r-uobzJEQX9jouKG-11" target="fXf3r-uobzJEQX9jouKG-24" edge="1">
          <mxGeometry relative="1" as="geometry">
            <mxPoint x="519.83" y="-610" as="sourcePoint" />
            <mxPoint x="519.83" y="-450" as="targetPoint" />
          </mxGeometry>
        </mxCell>
        <mxCell id="fXf3r-uobzJEQX9jouKG-79" value="" style="endArrow=classic;html=1;entryX=0.5;entryY=0;entryDx=0;entryDy=0;fontSize=24;" parent="1" source="fXf3r-uobzJEQX9jouKG-12" target="fXf3r-uobzJEQX9jouKG-25" edge="1">
          <mxGeometry relative="1" as="geometry">
            <mxPoint x="679.83" y="-610" as="sourcePoint" />
            <mxPoint x="679.83" y="-450" as="targetPoint" />
          </mxGeometry>
        </mxCell>
        <mxCell id="fXf3r-uobzJEQX9jouKG-83" value="" style="endArrow=classic;html=1;fontSize=24;" parent="1" source="fXf3r-uobzJEQX9jouKG-35" target="fXf3r-uobzJEQX9jouKG-50" edge="1">
          <mxGeometry width="50" height="50" relative="1" as="geometry">
            <mxPoint x="348.11002548068836" y="-316.5212154410533" as="sourcePoint" />
            <mxPoint x="420" y="-280" as="targetPoint" />
          </mxGeometry>
        </mxCell>
        <mxCell id="fXf3r-uobzJEQX9jouKG-84" value="" style="endArrow=classic;html=1;fontSize=24;" parent="1" source="fXf3r-uobzJEQX9jouKG-34" target="fXf3r-uobzJEQX9jouKG-51" edge="1">
          <mxGeometry width="50" height="50" relative="1" as="geometry">
            <mxPoint x="231.88997451931164" y="-316.52121544105285" as="sourcePoint" />
            <mxPoint x="460" y="-280" as="targetPoint" />
          </mxGeometry>
        </mxCell>
        <mxCell id="fXf3r-uobzJEQX9jouKG-85" value="" style="endArrow=classic;html=1;fontSize=24;" parent="1" source="fXf3r-uobzJEQX9jouKG-34" target="fXf3r-uobzJEQX9jouKG-49" edge="1">
          <mxGeometry width="50" height="50" relative="1" as="geometry">
            <mxPoint x="370" y="-110" as="sourcePoint" />
            <mxPoint x="720" y="-210" as="targetPoint" />
          </mxGeometry>
        </mxCell>
        <mxCell id="fXf3r-uobzJEQX9jouKG-87" value="" style="endArrow=classic;html=1;fontSize=24;" parent="1" source="fXf3r-uobzJEQX9jouKG-33" target="fXf3r-uobzJEQX9jouKG-50" edge="1">
          <mxGeometry width="50" height="50" relative="1" as="geometry">
            <mxPoint x="370" y="-110" as="sourcePoint" />
            <mxPoint x="620" y="-280" as="targetPoint" />
          </mxGeometry>
        </mxCell>
        <mxCell id="fXf3r-uobzJEQX9jouKG-89" value="Update likelihood" style="rounded=0;whiteSpace=wrap;html=1;fontSize=14;fillColor=#fff2cc;" parent="1" vertex="1">
          <mxGeometry x="640" y="-160" width="80" height="80" as="geometry" />
        </mxCell>
        <mxCell id="fXf3r-uobzJEQX9jouKG-90" value="Update likelihood" style="rounded=0;whiteSpace=wrap;html=1;fontSize=14;fillColor=#fff2cc;" parent="1" vertex="1">
          <mxGeometry x="480" y="-160" width="80" height="80" as="geometry" />
        </mxCell>
        <mxCell id="fXf3r-uobzJEQX9jouKG-91" value="Update likelihood" style="rounded=0;whiteSpace=wrap;html=1;fontSize=14;fillColor=#fff2cc;" parent="1" vertex="1">
          <mxGeometry x="320" y="-160" width="80" height="80" as="geometry" />
        </mxCell>
        <mxCell id="fXf3r-uobzJEQX9jouKG-92" value="Update likelihood" style="rounded=0;whiteSpace=wrap;html=1;fontSize=14;fillColor=#fff2cc;" parent="1" vertex="1">
          <mxGeometry x="160" y="-160" width="80" height="80" as="geometry" />
        </mxCell>
        <mxCell id="fXf3r-uobzJEQX9jouKG-93" value="" style="endArrow=classic;html=1;entryX=0.5;entryY=0;entryDx=0;entryDy=0;fontSize=24;" parent="1" source="fXf3r-uobzJEQX9jouKG-52" target="fXf3r-uobzJEQX9jouKG-92" edge="1">
          <mxGeometry width="50" height="50" relative="1" as="geometry">
            <mxPoint x="370" y="-230" as="sourcePoint" />
            <mxPoint x="420" y="-280" as="targetPoint" />
          </mxGeometry>
        </mxCell>
        <mxCell id="fXf3r-uobzJEQX9jouKG-94" value="" style="endArrow=classic;html=1;exitX=0.5;exitY=1;exitDx=0;exitDy=0;entryX=0.5;entryY=0;entryDx=0;entryDy=0;fontSize=24;" parent="1" source="fXf3r-uobzJEQX9jouKG-51" target="fXf3r-uobzJEQX9jouKG-91" edge="1">
          <mxGeometry width="50" height="50" relative="1" as="geometry">
            <mxPoint x="370" y="-230" as="sourcePoint" />
            <mxPoint x="420" y="-280" as="targetPoint" />
          </mxGeometry>
        </mxCell>
        <mxCell id="fXf3r-uobzJEQX9jouKG-95" value="" style="endArrow=classic;html=1;exitX=0.5;exitY=1;exitDx=0;exitDy=0;entryX=0.5;entryY=0;entryDx=0;entryDy=0;fontSize=24;" parent="1" source="fXf3r-uobzJEQX9jouKG-50" target="fXf3r-uobzJEQX9jouKG-90" edge="1">
          <mxGeometry width="50" height="50" relative="1" as="geometry">
            <mxPoint x="370" y="-230" as="sourcePoint" />
            <mxPoint x="420" y="-280" as="targetPoint" />
          </mxGeometry>
        </mxCell>
        <mxCell id="fXf3r-uobzJEQX9jouKG-96" value="" style="endArrow=classic;html=1;exitX=0.5;exitY=1;exitDx=0;exitDy=0;entryX=0.5;entryY=0;entryDx=0;entryDy=0;fontSize=24;" parent="1" source="fXf3r-uobzJEQX9jouKG-49" target="fXf3r-uobzJEQX9jouKG-89" edge="1">
          <mxGeometry width="50" height="50" relative="1" as="geometry">
            <mxPoint x="370" y="-230" as="sourcePoint" />
            <mxPoint x="420" y="-280" as="targetPoint" />
          </mxGeometry>
        </mxCell>
        <mxCell id="JurZ7_kkhOAOuP59lGV8-16" value="" style="edgeStyle=orthogonalEdgeStyle;rounded=0;jumpStyle=gap;jumpSize=11;orthogonalLoop=1;jettySize=auto;html=1;exitX=1;exitY=0.5;exitDx=0;exitDy=0;fontSize=24;" parent="1" source="fXf3r-uobzJEQX9jouKG-97" edge="1">
          <mxGeometry relative="1" as="geometry">
            <mxPoint x="720" y="-490" as="targetPoint" />
            <Array as="points">
              <mxPoint x="750" y="60" />
              <mxPoint x="750" y="-490" />
            </Array>
          </mxGeometry>
        </mxCell>
        <mxCell id="fXf3r-uobzJEQX9jouKG-97" value="P3" style="ellipse;whiteSpace=wrap;html=1;fontSize=24;" parent="1" vertex="1">
          <mxGeometry x="640" y="20" width="80" height="80" as="geometry" />
        </mxCell>
        <mxCell id="JurZ7_kkhOAOuP59lGV8-15" value="" style="edgeStyle=orthogonalEdgeStyle;rounded=0;jumpStyle=gap;jumpSize=11;orthogonalLoop=1;jettySize=auto;html=1;fontSize=24;entryX=1;entryY=0.5;entryDx=0;entryDy=0;" parent="1" edge="1" target="fXf3r-uobzJEQX9jouKG-24">
          <mxGeometry relative="1" as="geometry">
            <mxPoint x="480" y="60" as="sourcePoint" />
            <mxPoint x="570" y="-470" as="targetPoint" />
            <Array as="points">
              <mxPoint x="580" y="60" />
              <mxPoint x="580" y="-480" />
            </Array>
          </mxGeometry>
        </mxCell>
        <mxCell id="fXf3r-uobzJEQX9jouKG-98" value="P2" style="ellipse;whiteSpace=wrap;html=1;fontSize=24;" parent="1" vertex="1">
          <mxGeometry x="480" y="20" width="80" height="80" as="geometry" />
        </mxCell>
        <mxCell id="JurZ7_kkhOAOuP59lGV8-13" value="" style="edgeStyle=orthogonalEdgeStyle;rounded=0;orthogonalLoop=1;jettySize=auto;html=1;entryX=0;entryY=0.5;entryDx=0;entryDy=0;jumpStyle=gap;jumpSize=11;exitX=0;exitY=0.5;exitDx=0;exitDy=0;fontSize=24;" parent="1" source="fXf3r-uobzJEQX9jouKG-99" target="fXf3r-uobzJEQX9jouKG-23" edge="1">
          <mxGeometry relative="1" as="geometry">
            <Array as="points">
              <mxPoint x="300" y="60" />
              <mxPoint x="300" y="-480" />
            </Array>
          </mxGeometry>
        </mxCell>
        <mxCell id="fXf3r-uobzJEQX9jouKG-99" value="P1" style="ellipse;whiteSpace=wrap;html=1;fontSize=24;" parent="1" vertex="1">
          <mxGeometry x="320" y="20" width="80" height="80" as="geometry" />
        </mxCell>
        <mxCell id="JurZ7_kkhOAOuP59lGV8-11" value="" style="edgeStyle=orthogonalEdgeStyle;rounded=0;orthogonalLoop=1;jettySize=auto;html=1;entryX=0;entryY=0.5;entryDx=0;entryDy=0;exitX=0;exitY=0.5;exitDx=0;exitDy=0;fontSize=24;" parent="1" source="fXf3r-uobzJEQX9jouKG-100" target="fXf3r-uobzJEQX9jouKG-22" edge="1">
          <mxGeometry relative="1" as="geometry">
            <mxPoint x="80" y="60" as="targetPoint" />
            <Array as="points">
              <mxPoint x="110" y="60" />
              <mxPoint x="110" y="-480" />
            </Array>
          </mxGeometry>
        </mxCell>
        <mxCell id="fXf3r-uobzJEQX9jouKG-100" value="P0" style="ellipse;whiteSpace=wrap;html=1;fontSize=24;" parent="1" vertex="1">
          <mxGeometry x="160" y="20" width="80" height="80" as="geometry" />
        </mxCell>
        <mxCell id="fXf3r-uobzJEQX9jouKG-116" value="P0" style="ellipse;whiteSpace=wrap;html=1;fontSize=24;" parent="1" vertex="1">
          <mxGeometry x="160" y="200" width="80" height="80" as="geometry" />
        </mxCell>
        <mxCell id="fXf3r-uobzJEQX9jouKG-117" value="" style="endArrow=classic;html=1;fontSize=24;" parent="1" source="fXf3r-uobzJEQX9jouKG-100" target="fXf3r-uobzJEQX9jouKG-116" edge="1">
          <mxGeometry width="50" height="50" relative="1" as="geometry">
            <mxPoint x="390" y="-140" as="sourcePoint" />
            <mxPoint x="440" y="-190" as="targetPoint" />
          </mxGeometry>
        </mxCell>
        <mxCell id="fXf3r-uobzJEQX9jouKG-118" value="" style="endArrow=classic;html=1;fontSize=24;" parent="1" source="fXf3r-uobzJEQX9jouKG-99" target="fXf3r-uobzJEQX9jouKG-116" edge="1">
          <mxGeometry width="50" height="50" relative="1" as="geometry">
            <mxPoint x="390" y="-140" as="sourcePoint" />
            <mxPoint x="440" y="-190" as="targetPoint" />
          </mxGeometry>
        </mxCell>
        <mxCell id="fXf3r-uobzJEQX9jouKG-119" value="" style="endArrow=classic;html=1;fontSize=24;" parent="1" source="fXf3r-uobzJEQX9jouKG-98" target="fXf3r-uobzJEQX9jouKG-116" edge="1">
          <mxGeometry width="50" height="50" relative="1" as="geometry">
            <mxPoint x="390" y="-140" as="sourcePoint" />
            <mxPoint x="440" y="-190" as="targetPoint" />
          </mxGeometry>
        </mxCell>
        <mxCell id="fXf3r-uobzJEQX9jouKG-120" value="" style="endArrow=classic;html=1;fontSize=24;" parent="1" source="fXf3r-uobzJEQX9jouKG-97" target="fXf3r-uobzJEQX9jouKG-116" edge="1">
          <mxGeometry width="50" height="50" relative="1" as="geometry">
            <mxPoint x="390" y="-140" as="sourcePoint" />
            <mxPoint x="440" y="-190" as="targetPoint" />
          </mxGeometry>
        </mxCell>
        <mxCell id="fXf3r-uobzJEQX9jouKG-121" value="" style="endArrow=classic;html=1;exitX=0.5;exitY=1;exitDx=0;exitDy=0;fontSize=24;" parent="1" source="fXf3r-uobzJEQX9jouKG-92" target="fXf3r-uobzJEQX9jouKG-100" edge="1">
          <mxGeometry relative="1" as="geometry">
            <mxPoint x="250" y="-190" as="sourcePoint" />
            <mxPoint x="350" y="-190" as="targetPoint" />
          </mxGeometry>
        </mxCell>
        <mxCell id="fXf3r-uobzJEQX9jouKG-122" value="Block" style="edgeLabel;resizable=0;html=1;align=center;verticalAlign=middle;fontSize=24;labelBackgroundColor=#F19C99;labelBorderColor=#000000;" parent="fXf3r-uobzJEQX9jouKG-121" connectable="0" vertex="1">
          <mxGeometry relative="1" as="geometry" />
        </mxCell>
        <mxCell id="fXf3r-uobzJEQX9jouKG-123" value="" style="endArrow=classic;html=1;exitX=0.5;exitY=1;exitDx=0;exitDy=0;fontSize=24;labelBackgroundColor=none;" parent="1" source="fXf3r-uobzJEQX9jouKG-91" target="fXf3r-uobzJEQX9jouKG-99" edge="1">
          <mxGeometry relative="1" as="geometry">
            <mxPoint x="250" y="-190" as="sourcePoint" />
            <mxPoint x="350" y="-190" as="targetPoint" />
          </mxGeometry>
        </mxCell>
        <mxCell id="fXf3r-uobzJEQX9jouKG-124" value="Block" style="edgeLabel;resizable=0;html=1;align=center;verticalAlign=middle;fontSize=24;labelBackgroundColor=#F19C99;labelBorderColor=#000000;" parent="fXf3r-uobzJEQX9jouKG-123" connectable="0" vertex="1">
          <mxGeometry relative="1" as="geometry" />
        </mxCell>
        <mxCell id="fXf3r-uobzJEQX9jouKG-125" value="" style="endArrow=classic;html=1;exitX=0.5;exitY=1;exitDx=0;exitDy=0;fontSize=24;labelBackgroundColor=none;" parent="1" source="fXf3r-uobzJEQX9jouKG-90" target="fXf3r-uobzJEQX9jouKG-98" edge="1">
          <mxGeometry relative="1" as="geometry">
            <mxPoint x="250" y="-190" as="sourcePoint" />
            <mxPoint x="350" y="-190" as="targetPoint" />
          </mxGeometry>
        </mxCell>
        <mxCell id="fXf3r-uobzJEQX9jouKG-126" value="Block" style="edgeLabel;resizable=0;html=1;align=center;verticalAlign=middle;fontSize=24;labelBackgroundColor=#F19C99;labelBorderColor=#000000;" parent="fXf3r-uobzJEQX9jouKG-125" connectable="0" vertex="1">
          <mxGeometry relative="1" as="geometry" />
        </mxCell>
        <mxCell id="fXf3r-uobzJEQX9jouKG-127" value="" style="endArrow=classic;html=1;exitX=0.5;exitY=1;exitDx=0;exitDy=0;fontSize=24;labelBackgroundColor=none;" parent="1" source="fXf3r-uobzJEQX9jouKG-89" target="fXf3r-uobzJEQX9jouKG-97" edge="1">
          <mxGeometry relative="1" as="geometry">
            <mxPoint x="670" y="-80" as="sourcePoint" />
            <mxPoint x="690" y="10" as="targetPoint" />
          </mxGeometry>
        </mxCell>
        <mxCell id="fXf3r-uobzJEQX9jouKG-128" value="Block" style="edgeLabel;resizable=0;html=1;align=center;verticalAlign=middle;fontSize=24;labelBackgroundColor=#F19C99;labelBorderColor=#000000;" parent="fXf3r-uobzJEQX9jouKG-127" connectable="0" vertex="1">
          <mxGeometry relative="1" as="geometry" />
        </mxCell>
        <mxCell id="fXf3r-uobzJEQX9jouKG-129" value="P3" style="ellipse;whiteSpace=wrap;html=1;fontSize=24;" parent="1" vertex="1">
          <mxGeometry x="640" y="200" width="80" height="80" as="geometry" />
        </mxCell>
        <mxCell id="fXf3r-uobzJEQX9jouKG-130" value="P2" style="ellipse;whiteSpace=wrap;html=1;fontSize=24;" parent="1" vertex="1">
          <mxGeometry x="480" y="200" width="80" height="80" as="geometry" />
        </mxCell>
        <mxCell id="fXf3r-uobzJEQX9jouKG-131" value="P1" style="ellipse;whiteSpace=wrap;html=1;fontSize=24;" parent="1" vertex="1">
          <mxGeometry x="320" y="200" width="80" height="80" as="geometry" />
        </mxCell>
        <mxCell id="9TntlFMedyVJn60BAklY-64" style="edgeStyle=orthogonalEdgeStyle;rounded=0;orthogonalLoop=1;jettySize=auto;html=1;labelBackgroundColor=none;fontSize=24;" edge="1" parent="1" source="JurZ7_kkhOAOuP59lGV8-22" target="9TntlFMedyVJn60BAklY-4">
          <mxGeometry relative="1" as="geometry" />
        </mxCell>
        <mxCell id="JurZ7_kkhOAOuP59lGV8-22" value="BayesLine Step" style="rounded=0;whiteSpace=wrap;html=1;fontSize=14;fillColor=#fff2cc;" parent="1" vertex="1">
          <mxGeometry x="160" y="320" width="80" height="80" as="geometry" />
        </mxCell>
        <mxCell id="JurZ7_kkhOAOuP59lGV8-29" value="" style="endArrow=classic;html=1;entryX=0.5;entryY=0;entryDx=0;entryDy=0;fontSize=24;" parent="1" source="fXf3r-uobzJEQX9jouKG-116" target="JurZ7_kkhOAOuP59lGV8-22" edge="1">
          <mxGeometry width="50" height="50" relative="1" as="geometry">
            <mxPoint x="330" y="480" as="sourcePoint" />
            <mxPoint x="380" y="430" as="targetPoint" />
          </mxGeometry>
        </mxCell>
        <mxCell id="9TntlFMedyVJn60BAklY-4" value="P0" style="ellipse;whiteSpace=wrap;html=1;fontSize=24;" vertex="1" parent="1">
          <mxGeometry x="160" y="480" width="80" height="80" as="geometry" />
        </mxCell>
        <mxCell id="9TntlFMedyVJn60BAklY-5" value="P1" style="ellipse;whiteSpace=wrap;html=1;fontSize=24;" vertex="1" parent="1">
          <mxGeometry x="320" y="480" width="80" height="80" as="geometry" />
        </mxCell>
        <mxCell id="9TntlFMedyVJn60BAklY-6" value="P2" style="ellipse;whiteSpace=wrap;html=1;fontSize=24;" vertex="1" parent="1">
          <mxGeometry x="480" y="480" width="80" height="80" as="geometry" />
        </mxCell>
        <mxCell id="9TntlFMedyVJn60BAklY-7" value="P3" style="ellipse;whiteSpace=wrap;html=1;fontSize=24;" vertex="1" parent="1">
          <mxGeometry x="640" y="480" width="80" height="80" as="geometry" />
        </mxCell>
        <mxCell id="9TntlFMedyVJn60BAklY-11" value="P0" style="ellipse;whiteSpace=wrap;html=1;fontSize=24;" vertex="1" parent="1">
          <mxGeometry x="160" y="600" width="80" height="80" as="geometry" />
        </mxCell>
        <mxCell id="9TntlFMedyVJn60BAklY-12" value="P1" style="ellipse;whiteSpace=wrap;html=1;fontSize=24;" vertex="1" parent="1">
          <mxGeometry x="320" y="600" width="80" height="80" as="geometry" />
        </mxCell>
        <mxCell id="9TntlFMedyVJn60BAklY-13" value="P2" style="ellipse;whiteSpace=wrap;html=1;fontSize=24;" vertex="1" parent="1">
          <mxGeometry x="480" y="600" width="80" height="80" as="geometry" />
        </mxCell>
        <mxCell id="9TntlFMedyVJn60BAklY-14" value="P3" style="ellipse;whiteSpace=wrap;html=1;fontSize=24;" vertex="1" parent="1">
          <mxGeometry x="640" y="600" width="80" height="80" as="geometry" />
        </mxCell>
        <mxCell id="9TntlFMedyVJn60BAklY-15" value="" style="endArrow=classic;html=1;labelBackgroundColor=none;fontSize=14;" edge="1" parent="1" source="9TntlFMedyVJn60BAklY-4" target="9TntlFMedyVJn60BAklY-11">
          <mxGeometry width="50" height="50" relative="1" as="geometry">
            <mxPoint x="420" y="640" as="sourcePoint" />
            <mxPoint x="470" y="590" as="targetPoint" />
          </mxGeometry>
        </mxCell>
        <mxCell id="9TntlFMedyVJn60BAklY-16" value="" style="endArrow=classic;html=1;labelBackgroundColor=none;fontSize=14;" edge="1" parent="1" source="9TntlFMedyVJn60BAklY-4" target="9TntlFMedyVJn60BAklY-12">
          <mxGeometry width="50" height="50" relative="1" as="geometry">
            <mxPoint x="420" y="640" as="sourcePoint" />
            <mxPoint x="470" y="590" as="targetPoint" />
          </mxGeometry>
        </mxCell>
        <mxCell id="9TntlFMedyVJn60BAklY-17" value="" style="endArrow=classic;html=1;labelBackgroundColor=none;fontSize=14;" edge="1" parent="1" source="9TntlFMedyVJn60BAklY-4" target="9TntlFMedyVJn60BAklY-13">
          <mxGeometry width="50" height="50" relative="1" as="geometry">
            <mxPoint x="420" y="640" as="sourcePoint" />
            <mxPoint x="470" y="590" as="targetPoint" />
          </mxGeometry>
        </mxCell>
        <mxCell id="9TntlFMedyVJn60BAklY-18" value="" style="endArrow=classic;html=1;labelBackgroundColor=none;fontSize=14;" edge="1" parent="1" source="9TntlFMedyVJn60BAklY-4" target="9TntlFMedyVJn60BAklY-14">
          <mxGeometry width="50" height="50" relative="1" as="geometry">
            <mxPoint x="420" y="640" as="sourcePoint" />
            <mxPoint x="470" y="590" as="targetPoint" />
          </mxGeometry>
        </mxCell>
        <mxCell id="9TntlFMedyVJn60BAklY-19" value="MBHMCMC Step" style="rounded=0;whiteSpace=wrap;html=1;fontSize=14;fillColor=#fff2cc;" vertex="1" parent="1">
          <mxGeometry x="160" y="760" width="80" height="80" as="geometry" />
        </mxCell>
        <mxCell id="9TntlFMedyVJn60BAklY-20" value="MBHMCMC Step" style="rounded=0;whiteSpace=wrap;html=1;fontSize=14;fillColor=#fff2cc;" vertex="1" parent="1">
          <mxGeometry x="320" y="760" width="80" height="80" as="geometry" />
        </mxCell>
        <mxCell id="9TntlFMedyVJn60BAklY-21" value="MBHMCMC Step" style="rounded=0;whiteSpace=wrap;html=1;fontSize=14;fillColor=#fff2cc;" vertex="1" parent="1">
          <mxGeometry x="480" y="760" width="80" height="80" as="geometry" />
        </mxCell>
        <mxCell id="9TntlFMedyVJn60BAklY-22" value="MBHMCMC Step" style="rounded=0;whiteSpace=wrap;html=1;fontSize=14;fillColor=#fff2cc;" vertex="1" parent="1">
          <mxGeometry x="640" y="760" width="80" height="80" as="geometry" />
        </mxCell>
        <mxCell id="9TntlFMedyVJn60BAklY-28" value="" style="endArrow=classic;html=1;labelBackgroundColor=none;fontSize=14;entryX=0.5;entryY=0;entryDx=0;entryDy=0;" edge="1" parent="1" source="9TntlFMedyVJn60BAklY-11" target="9TntlFMedyVJn60BAklY-19">
          <mxGeometry width="50" height="50" relative="1" as="geometry">
            <mxPoint x="200" y="760" as="sourcePoint" />
            <mxPoint x="640" y="840" as="targetPoint" />
          </mxGeometry>
        </mxCell>
        <mxCell id="9TntlFMedyVJn60BAklY-29" value="" style="endArrow=classic;html=1;labelBackgroundColor=none;fontSize=14;entryX=0.5;entryY=0;entryDx=0;entryDy=0;" edge="1" parent="1" source="9TntlFMedyVJn60BAklY-12" target="9TntlFMedyVJn60BAklY-20">
          <mxGeometry width="50" height="50" relative="1" as="geometry">
            <mxPoint x="360" y="760" as="sourcePoint" />
            <mxPoint x="640" y="840" as="targetPoint" />
          </mxGeometry>
        </mxCell>
        <mxCell id="9TntlFMedyVJn60BAklY-30" value="" style="endArrow=classic;html=1;labelBackgroundColor=none;fontSize=14;entryX=0.5;entryY=0;entryDx=0;entryDy=0;" edge="1" parent="1" source="9TntlFMedyVJn60BAklY-13" target="9TntlFMedyVJn60BAklY-21">
          <mxGeometry width="50" height="50" relative="1" as="geometry">
            <mxPoint x="520.0000000000005" y="760" as="sourcePoint" />
            <mxPoint x="640" y="840" as="targetPoint" />
          </mxGeometry>
        </mxCell>
        <mxCell id="9TntlFMedyVJn60BAklY-31" value="" style="endArrow=classic;html=1;labelBackgroundColor=none;fontSize=14;entryX=0.5;entryY=0;entryDx=0;entryDy=0;" edge="1" parent="1" source="9TntlFMedyVJn60BAklY-14" target="9TntlFMedyVJn60BAklY-22">
          <mxGeometry width="50" height="50" relative="1" as="geometry">
            <mxPoint x="679.9999999999995" y="760" as="sourcePoint" />
            <mxPoint x="640" y="840" as="targetPoint" />
          </mxGeometry>
        </mxCell>
        <mxCell id="9TntlFMedyVJn60BAklY-53" style="edgeStyle=orthogonalEdgeStyle;rounded=0;orthogonalLoop=1;jettySize=auto;html=1;entryX=0;entryY=0.5;entryDx=0;entryDy=0;labelBackgroundColor=none;fontSize=24;" edge="1" parent="1" source="9TntlFMedyVJn60BAklY-33" target="9TntlFMedyVJn60BAklY-19">
          <mxGeometry relative="1" as="geometry">
            <Array as="points">
              <mxPoint x="140" y="960" />
              <mxPoint x="140" y="800" />
            </Array>
          </mxGeometry>
        </mxCell>
        <mxCell id="9TntlFMedyVJn60BAklY-33" value="P0" style="ellipse;whiteSpace=wrap;html=1;fontSize=24;" vertex="1" parent="1">
          <mxGeometry x="160" y="920" width="80" height="80" as="geometry" />
        </mxCell>
        <mxCell id="9TntlFMedyVJn60BAklY-55" style="edgeStyle=orthogonalEdgeStyle;rounded=0;orthogonalLoop=1;jettySize=auto;html=1;entryX=0;entryY=0.5;entryDx=0;entryDy=0;labelBackgroundColor=none;fontSize=24;" edge="1" parent="1" source="9TntlFMedyVJn60BAklY-34" target="9TntlFMedyVJn60BAklY-20">
          <mxGeometry relative="1" as="geometry">
            <Array as="points">
              <mxPoint x="300" y="960" />
              <mxPoint x="300" y="800" />
            </Array>
          </mxGeometry>
        </mxCell>
        <mxCell id="9TntlFMedyVJn60BAklY-34" value="P1" style="ellipse;whiteSpace=wrap;html=1;fontSize=24;" vertex="1" parent="1">
          <mxGeometry x="320" y="920" width="80" height="80" as="geometry" />
        </mxCell>
        <mxCell id="9TntlFMedyVJn60BAklY-56" style="edgeStyle=orthogonalEdgeStyle;rounded=0;orthogonalLoop=1;jettySize=auto;html=1;entryX=1;entryY=0.5;entryDx=0;entryDy=0;labelBackgroundColor=none;fontSize=24;" edge="1" parent="1" source="9TntlFMedyVJn60BAklY-35" target="9TntlFMedyVJn60BAklY-21">
          <mxGeometry relative="1" as="geometry">
            <Array as="points">
              <mxPoint x="580" y="960" />
              <mxPoint x="580" y="800" />
            </Array>
          </mxGeometry>
        </mxCell>
        <mxCell id="9TntlFMedyVJn60BAklY-35" value="P2" style="ellipse;whiteSpace=wrap;html=1;fontSize=24;" vertex="1" parent="1">
          <mxGeometry x="480" y="920" width="80" height="80" as="geometry" />
        </mxCell>
        <mxCell id="9TntlFMedyVJn60BAklY-57" style="edgeStyle=orthogonalEdgeStyle;rounded=0;orthogonalLoop=1;jettySize=auto;html=1;entryX=1;entryY=0.5;entryDx=0;entryDy=0;labelBackgroundColor=none;fontSize=24;" edge="1" parent="1" source="9TntlFMedyVJn60BAklY-36" target="9TntlFMedyVJn60BAklY-22">
          <mxGeometry relative="1" as="geometry">
            <Array as="points">
              <mxPoint x="740" y="960" />
              <mxPoint x="740" y="800" />
            </Array>
          </mxGeometry>
        </mxCell>
        <mxCell id="9TntlFMedyVJn60BAklY-36" value="P3" style="ellipse;whiteSpace=wrap;html=1;fontSize=24;" vertex="1" parent="1">
          <mxGeometry x="640" y="920" width="80" height="80" as="geometry" />
        </mxCell>
        <mxCell id="9TntlFMedyVJn60BAklY-63" style="edgeStyle=orthogonalEdgeStyle;rounded=0;orthogonalLoop=1;jettySize=auto;html=1;labelBackgroundColor=none;fontSize=24;" edge="1" parent="1" source="9TntlFMedyVJn60BAklY-37" target="fXf3r-uobzJEQX9jouKG-5">
          <mxGeometry relative="1" as="geometry">
            <Array as="points">
              <mxPoint x="30" y="1120" />
              <mxPoint x="30" y="-760" />
            </Array>
          </mxGeometry>
        </mxCell>
        <mxCell id="9TntlFMedyVJn60BAklY-37" value="P0" style="ellipse;whiteSpace=wrap;html=1;fontSize=24;" vertex="1" parent="1">
          <mxGeometry x="160" y="1080" width="80" height="80" as="geometry" />
        </mxCell>
        <mxCell id="9TntlFMedyVJn60BAklY-38" value="P1" style="ellipse;whiteSpace=wrap;html=1;fontSize=24;" vertex="1" parent="1">
          <mxGeometry x="320" y="1080" width="80" height="80" as="geometry" />
        </mxCell>
        <mxCell id="9TntlFMedyVJn60BAklY-39" value="P2" style="ellipse;whiteSpace=wrap;html=1;fontSize=24;" vertex="1" parent="1">
          <mxGeometry x="480" y="1080" width="80" height="80" as="geometry" />
        </mxCell>
        <mxCell id="9TntlFMedyVJn60BAklY-40" value="P3" style="ellipse;whiteSpace=wrap;html=1;fontSize=24;" vertex="1" parent="1">
          <mxGeometry x="640" y="1080" width="80" height="80" as="geometry" />
        </mxCell>
        <mxCell id="9TntlFMedyVJn60BAklY-41" value="" style="endArrow=classic;html=1;labelBackgroundColor=none;fontSize=14;exitX=0.5;exitY=1;exitDx=0;exitDy=0;" edge="1" parent="1" source="9TntlFMedyVJn60BAklY-19" target="9TntlFMedyVJn60BAklY-33">
          <mxGeometry relative="1" as="geometry">
            <mxPoint x="480" y="880" as="sourcePoint" />
            <mxPoint x="580" y="880" as="targetPoint" />
          </mxGeometry>
        </mxCell>
        <mxCell id="9TntlFMedyVJn60BAklY-42" value="Block" style="edgeLabel;resizable=0;html=1;align=center;verticalAlign=middle;fontSize=24;labelBackgroundColor=#F19C99;labelBorderColor=#000000;" connectable="0" vertex="1" parent="9TntlFMedyVJn60BAklY-41">
          <mxGeometry relative="1" as="geometry" />
        </mxCell>
        <mxCell id="9TntlFMedyVJn60BAklY-43" value="" style="endArrow=classic;html=1;labelBackgroundColor=none;fontSize=14;exitX=0.5;exitY=1;exitDx=0;exitDy=0;" edge="1" parent="1" source="9TntlFMedyVJn60BAklY-20" target="9TntlFMedyVJn60BAklY-34">
          <mxGeometry relative="1" as="geometry">
            <mxPoint x="480" y="880" as="sourcePoint" />
            <mxPoint x="580" y="880" as="targetPoint" />
          </mxGeometry>
        </mxCell>
        <mxCell id="9TntlFMedyVJn60BAklY-44" value="Block" style="edgeLabel;resizable=0;html=1;align=center;verticalAlign=middle;fontSize=24;labelBackgroundColor=#F19C99;labelBorderColor=#000000;" connectable="0" vertex="1" parent="9TntlFMedyVJn60BAklY-43">
          <mxGeometry relative="1" as="geometry" />
        </mxCell>
        <mxCell id="9TntlFMedyVJn60BAklY-45" value="" style="endArrow=classic;html=1;labelBackgroundColor=none;fontSize=14;exitX=0.5;exitY=1;exitDx=0;exitDy=0;" edge="1" parent="1" source="9TntlFMedyVJn60BAklY-21" target="9TntlFMedyVJn60BAklY-35">
          <mxGeometry relative="1" as="geometry">
            <mxPoint x="480" y="880" as="sourcePoint" />
            <mxPoint x="580" y="880" as="targetPoint" />
          </mxGeometry>
        </mxCell>
        <mxCell id="9TntlFMedyVJn60BAklY-46" value="Block" style="edgeLabel;resizable=0;html=1;align=center;verticalAlign=middle;fontSize=24;labelBackgroundColor=#F19C99;labelBorderColor=#000000;" connectable="0" vertex="1" parent="9TntlFMedyVJn60BAklY-45">
          <mxGeometry relative="1" as="geometry" />
        </mxCell>
        <mxCell id="9TntlFMedyVJn60BAklY-47" value="" style="endArrow=classic;html=1;labelBackgroundColor=none;fontSize=14;exitX=0.5;exitY=1;exitDx=0;exitDy=0;" edge="1" parent="1" source="9TntlFMedyVJn60BAklY-22" target="9TntlFMedyVJn60BAklY-36">
          <mxGeometry relative="1" as="geometry">
            <mxPoint x="480" y="880" as="sourcePoint" />
            <mxPoint x="580" y="880" as="targetPoint" />
          </mxGeometry>
        </mxCell>
        <mxCell id="9TntlFMedyVJn60BAklY-48" value="Block" style="edgeLabel;resizable=0;html=1;align=center;verticalAlign=middle;fontSize=24;labelBackgroundColor=#F19C99;labelBorderColor=#000000;" connectable="0" vertex="1" parent="9TntlFMedyVJn60BAklY-47">
          <mxGeometry relative="1" as="geometry" />
        </mxCell>
        <mxCell id="9TntlFMedyVJn60BAklY-49" value="" style="endArrow=classic;html=1;labelBackgroundColor=none;fontSize=24;" edge="1" parent="1" source="9TntlFMedyVJn60BAklY-33" target="9TntlFMedyVJn60BAklY-37">
          <mxGeometry width="50" height="50" relative="1" as="geometry">
            <mxPoint x="380" y="1010" as="sourcePoint" />
            <mxPoint x="430" y="960" as="targetPoint" />
          </mxGeometry>
        </mxCell>
        <mxCell id="9TntlFMedyVJn60BAklY-50" value="" style="endArrow=classic;html=1;labelBackgroundColor=none;fontSize=24;" edge="1" parent="1" source="9TntlFMedyVJn60BAklY-34" target="9TntlFMedyVJn60BAklY-37">
          <mxGeometry width="50" height="50" relative="1" as="geometry">
            <mxPoint x="380" y="1010" as="sourcePoint" />
            <mxPoint x="430" y="960" as="targetPoint" />
          </mxGeometry>
        </mxCell>
        <mxCell id="9TntlFMedyVJn60BAklY-51" value="" style="endArrow=classic;html=1;labelBackgroundColor=none;fontSize=24;" edge="1" parent="1" source="9TntlFMedyVJn60BAklY-35" target="9TntlFMedyVJn60BAklY-37">
          <mxGeometry width="50" height="50" relative="1" as="geometry">
            <mxPoint x="380" y="1010" as="sourcePoint" />
            <mxPoint x="430" y="960" as="targetPoint" />
          </mxGeometry>
        </mxCell>
        <mxCell id="9TntlFMedyVJn60BAklY-52" value="" style="endArrow=classic;html=1;labelBackgroundColor=none;fontSize=24;" edge="1" parent="1" source="9TntlFMedyVJn60BAklY-36" target="9TntlFMedyVJn60BAklY-37">
          <mxGeometry width="50" height="50" relative="1" as="geometry">
            <mxPoint x="380" y="1010" as="sourcePoint" />
            <mxPoint x="430" y="960" as="targetPoint" />
          </mxGeometry>
        </mxCell>
      </root>
    </mxGraphModel>
  </diagram>
</mxfile>
